<svg width="616" height="153" viewBox="0 0 616 153" fill="none" xmlns="http://www.w3.org/2000/svg">
<g clip-path="url(#clip0_24_20)">
<path d="M77.27 152.98H76.72C41.03 152.89 17.11 145.49 12.15 140.92C6.9 136.26 0 112.13 0 76.49C0 40.85 6.9 16.72 12.14 12.06C17.11 7.49 41.12 0.09 76.72 0H77.27C112.96 0.09 136.88 7.49 141.84 12.06C147.08 16.72 153.98 40.94 153.98 76.49C153.98 112.04 147.08 136.26 141.84 140.92C136.87 145.58 112.95 152.98 77.27 152.98Z" fill="#0357EE"/>
<path d="M111.19 80.8901L108.32 46.3401H91.0101C91.0101 46.3401 77.8201 72.9401 76.6601 76.5601H76.4801L62.5801 46.3401H45.1801L42.3101 76.3001L39.8901 106.7H50.4701C55.0401 106.7 56.8401 104.76 57.2001 99.9801C57.2001 99.9801 59.0001 72.1401 58.7301 68.0801H58.9101L59.4501 69.9401C60.1701 72.4101 70.0301 96.1801 70.0301 96.1801H83.0401C83.0401 96.1801 92.9101 72.7601 94.1601 68.0801H94.3401L95.8701 99.9801C96.2301 104.75 98.1101 106.7 102.6 106.7H113.18L111.21 80.9001L111.19 80.8901Z" fill="white"/>
<path d="M556.93 104.19H543.39V63.8201L550.75 63.7801C552.58 63.7801 553.96 64.2001 554.9 65.0401C555.89 65.8301 556.39 66.9301 556.39 68.3401V68.8901L556.31 69.8301H556.47C559.24 65.1701 563.49 62.8401 569.23 62.8401C578.89 62.8401 583.71 67.8901 583.71 77.9801V104.19H575.88C573.9 104.19 572.43 103.75 571.49 102.86C570.6 101.92 570.16 100.46 570.16 98.4601V80.4901C570.16 76.9301 568.67 75.1501 565.7 75.1501C561.74 75.1501 559.07 77.0901 557.71 80.9601C557.19 82.3701 556.93 84.1501 556.93 86.3001V104.19Z" fill="#0357EE"/>
<path fill-rule="evenodd" clip-rule="evenodd" d="M472.1 84.1001C472.1 77.8201 474.26 72.7201 478.6 68.8001C482.93 64.8301 488.33 62.8401 494.81 62.8401C501.29 62.8401 506.76 64.8301 511.09 68.8001C515.48 72.7301 517.67 77.8301 517.67 84.1001C517.67 90.3701 515.48 95.4001 511.09 99.3201C506.76 103.19 501.36 105.13 494.89 105.13C488.42 105.13 483.04 103.2 478.61 99.3201C474.28 95.3901 472.11 90.3201 472.11 84.1001H472.1ZM485.73 84.1001C485.73 86.9701 486.59 89.3301 488.32 91.1601C490.1 92.9401 492.28 93.8301 494.9 93.8301C497.52 93.8301 499.67 92.9401 501.4 91.1601C503.18 89.3301 504.06 86.9701 504.06 84.1001C504.06 81.2301 503.17 78.7901 501.4 76.9601C499.68 75.0801 497.51 74.1301 494.9 74.1301C492.29 74.1301 490.1 75.0701 488.32 76.9601C486.6 78.7901 485.73 81.1701 485.73 84.1001Z" fill="#0357EE"/>
<path fill-rule="evenodd" clip-rule="evenodd" d="M425.57 119.89H439.11V105.13C439.11 104.09 439.06 102.93 438.95 101.67H439.11L440.21 102.53C441.05 103.16 442.33 103.73 444.05 104.26C445.83 104.83 447.6 105.12 449.38 105.12C454.81 105.12 459.3 103.19 462.85 99.3101C466.4 95.4401 468.18 90.3401 468.18 84.0101C468.18 77.6801 466.51 72.5201 463.17 68.7101C459.88 64.7801 455.5 62.8201 450.01 62.8201C447.45 62.8201 445.18 63.2601 443.2 64.1501C441.22 65.0401 439.83 65.8801 439.05 66.6601C438.32 67.3901 437.95 67.8301 437.95 67.9901H437.79V67.2901C437.79 66.2501 437.35 65.4101 436.46 64.7801C435.62 64.1001 434.32 63.7601 432.55 63.7601H425.37L425.58 74.5901V119.87L425.57 119.89ZM440.83 91.1601C439.42 89.2801 438.71 86.9701 438.71 84.2601C438.71 81.0701 439.44 78.6101 440.9 76.8901C442.36 75.1601 444.27 74.3001 446.61 74.3001C448.95 74.3001 450.86 75.2101 452.32 77.0401C453.78 78.8701 454.51 81.2801 454.51 84.2601C454.51 87.2401 453.76 89.5501 452.24 91.3201C450.78 93.0501 448.9 93.9101 446.6 93.9101C444.3 93.9101 442.27 93.0001 440.8 91.1701L440.83 91.1601Z" fill="#0357EE"/>
<path fill-rule="evenodd" clip-rule="evenodd" d="M379.66 83.9401C379.66 77.8701 381.57 72.8501 385.37 68.8701C389.23 64.8401 394.32 62.8301 400.63 62.8301C406.43 62.8301 410.96 64.6601 414.26 68.3201C417.6 71.8801 419.27 76.5601 419.27 82.3601L418.96 86.4401H393.51C393.98 88.8001 395.05 90.6301 396.72 91.9301C398.44 93.1901 400.5 93.8101 402.9 93.8101C404.46 93.8101 406.14 93.5001 407.91 92.8701C409.69 92.1901 411.12 91.4601 412.22 90.6701L413.63 89.5701L419.03 98.6701C418.56 99.1401 417.57 99.9001 416.05 100.94C414.49 101.88 413.28 102.54 412.45 102.9C408.95 104.37 405.4 105.1 401.81 105.1C395.03 105.1 389.62 103.01 385.6 98.8201C381.64 94.6901 379.65 89.7201 379.65 83.9101L379.66 83.9401ZM393.9 78.2101H405.41C405.41 76.8501 404.94 75.6501 404 74.6001C403.06 73.5601 401.94 73.0301 400.63 73.0301C397.13 73.0301 394.89 74.7601 393.9 78.2101Z" fill="#0357EE"/>
<path d="M360.5 98.47C360.5 100.46 360.94 101.93 361.83 102.87C362.77 103.76 364.23 104.2 366.21 104.2H374.04V69.51C374.04 67.52 373.57 66.08 372.63 65.2C371.74 64.26 370.31 63.79 368.32 63.79H360.49V98.48L360.5 98.47Z" fill="#0357EE"/>
<path d="M327.32 104.19H313.78V76.8801C313.78 75.7301 313.78 75.3001 313.78 75.3001V63.7701H321.13C322.96 63.7701 324.34 64.1901 325.28 65.0301C326.27 65.8201 326.77 66.9201 326.77 68.3301V68.8801L326.69 69.8201H326.85C329.62 65.1601 333.87 62.8301 339.61 62.8301C349.27 62.8301 354.09 67.8801 354.09 77.9701V92.1401C354.09 92.2601 354.09 92.3801 354.09 92.6501C353.99 97.0901 354.05 104.18 354.05 104.18H346.26C344.28 104.18 342.82 103.74 341.88 102.85C340.99 101.91 340.55 100.45 340.55 98.4501V80.4801C340.55 76.9201 339.06 75.1401 336.09 75.1401C332.13 75.1401 329.46 77.0701 328.1 80.9501C327.58 82.3601 327.32 84.1401 327.32 86.2901V104.18V104.19Z" fill="#0357EE"/>
<path fill-rule="evenodd" clip-rule="evenodd" d="M263.85 84.1001C263.85 77.8201 266.01 72.7201 270.35 68.8001C274.68 64.8301 280.08 62.8401 286.56 62.8401C293.04 62.8401 298.51 64.8301 302.84 68.8001C307.23 72.7301 309.42 77.8301 309.42 84.1001C309.42 90.3701 307.23 95.4001 302.84 99.3201C298.51 103.19 293.11 105.13 286.63 105.13C280.15 105.13 274.78 103.2 270.35 99.3201C266.02 95.3901 263.85 90.3201 263.85 84.1001ZM277.47 84.1001C277.47 86.9701 278.34 89.3301 280.06 91.1601C281.84 92.9401 284.03 93.8301 286.64 93.8301C289.25 93.8301 291.42 92.9401 293.14 91.1601C294.92 89.3301 295.8 86.9701 295.8 84.1001C295.8 81.2301 294.91 78.7901 293.14 76.9601C291.42 75.0801 289.25 74.1301 286.64 74.1301C284.03 74.1301 281.84 75.0701 280.06 76.9601C278.34 78.7901 277.47 81.1701 277.47 84.1001Z" fill="#0357EE"/>
<path d="M256.23 48.0801L258.86 80.1501L260.67 104.1H250.97C246.86 104.1 245.13 102.3 244.8 97.8701L243.41 68.2601H243.25C242.1 72.6101 233.06 94.3401 233.06 94.3401H221.14C221.14 94.3401 212.09 72.2701 211.44 69.9701L210.95 68.2501H210.79C211.05 72.0201 209.4 97.8601 209.4 97.8601C209.06 102.28 207.42 104.09 203.23 104.09H193.52L195.73 75.8801L198.36 48.0801H214.31L227.05 76.1301H227.21C228.28 72.7801 240.37 48.0801 240.37 48.0801H256.24H256.23Z" fill="#0357EE"/>
<path d="M593.39 74.3801V89.2901C593.39 94.8901 595.71 99.1201 600.36 102C603.6 103.73 607.56 104.59 612.26 104.59C613.72 104.59 614.95 104.51 615.94 104.35V92.5801L614.14 92.6601C609.34 92.6601 606.94 90.9301 606.94 87.4801V74.3801H615.4V63.7901H606.94V52.8801H593.78V63.7901H588.22V74.3801H593.39Z" fill="#0357EE"/>
<path d="M373.95 53.3301C373.95 54.7701 373.72 56.1701 373.3 57.4801C373 58.3901 372.27 59.1201 371.36 59.4101C370.05 59.8301 368.66 60.0501 367.23 60.0501C365.8 60.0501 364.4 59.8201 363.09 59.4101C362.18 59.1201 361.45 58.3901 361.15 57.4801C360.73 56.1701 360.5 54.7701 360.5 53.3301C360.5 51.8901 360.73 50.4901 361.15 49.1801C361.45 48.2701 362.18 47.5401 363.09 47.2501C364.4 46.8301 365.79 46.6101 367.23 46.6101C368.67 46.6101 370.06 46.8401 371.36 47.2501C372.27 47.5401 373 48.2701 373.3 49.1801C373.72 50.4901 373.95 51.8901 373.95 53.3301Z" fill="#0357EE"/>
<path d="M522.98 98.47C522.98 100.46 523.42 101.93 524.31 102.87C525.25 103.76 526.71 104.2 528.69 104.2H536.52V69.51C536.52 67.52 536.05 66.08 535.11 65.2C534.22 64.26 532.79 63.79 530.8 63.79H522.97V98.48L522.98 98.47Z" fill="#0357EE"/>
<path d="M536.44 53.3301C536.44 54.7701 536.21 56.1701 535.79 57.4801C535.49 58.3901 534.76 59.1201 533.85 59.4101C532.54 59.8301 531.15 60.0501 529.72 60.0501C528.29 60.0501 526.89 59.8201 525.58 59.4101C524.67 59.1201 523.94 58.3901 523.64 57.4801C523.22 56.1701 522.99 54.7701 522.99 53.3301C522.99 51.8901 523.22 50.4901 523.64 49.1801C523.94 48.2701 524.67 47.5401 525.58 47.2501C526.89 46.8301 528.28 46.6101 529.72 46.6101C531.16 46.6101 532.55 46.8401 533.85 47.2501C534.76 47.5401 535.49 48.2701 535.79 49.1801C536.21 50.4901 536.44 51.8901 536.44 53.3301Z" fill="#0357EE"/>
</g>
<defs>
<clipPath id="clip0_24_20">
<rect width="615.94" height="152.98" fill="white"/>
</clipPath>
</defs>
</svg>
