<svg width="157" height="28" viewBox="0 0 157 28" fill="none" xmlns="http://www.w3.org/2000/svg">
<g clip-path="url(#clip0_19_2)">
<path d="M22.32 2.66287H1.30602C0.594024 2.66287 2.3928e-05 3.26287 2.3928e-05 3.98487V6.35487C2.3928e-05 7.09487 0.594024 7.67887 1.30702 7.67887H22.319C23.049 7.67887 23.626 7.07687 23.643 6.35587V4.00187C23.643 3.26387 23.049 2.66187 22.32 2.66187V2.66287ZM22.32 15.8549H1.30602C1.134 15.8552 0.963744 15.8896 0.805133 15.9562C0.646522 16.0229 0.502707 16.1203 0.382024 16.2429C0.136332 16.492 -0.00127636 16.828 -0.000976072 17.1779V19.5479C-0.000976072 20.2879 0.593024 20.8709 1.30602 20.8709H22.318C23.048 20.8709 23.625 20.2869 23.642 19.5489V17.1779C23.642 16.4389 23.049 15.8549 22.32 15.8549ZM13.137 22.4349H1.30702C0.960024 22.4349 0.627024 22.5739 0.383024 22.8219C0.137332 23.071 -0.000276361 23.407 2.3928e-05 23.7569V26.1269C2.3928e-05 26.8669 0.594024 27.4499 1.30702 27.4499H13.12C13.85 27.4499 14.427 26.8499 14.427 26.1279V23.7569C14.4314 23.5847 14.4013 23.4134 14.3385 23.2531C14.2756 23.0927 14.1813 22.9466 14.0611 22.8233C13.9408 22.7 13.7971 22.602 13.6384 22.5351C13.4797 22.4682 13.3092 22.4348 13.137 22.4349ZM23.643 9.25787H1.30702C0.960024 9.25787 0.627024 9.39787 0.383024 9.64487C0.137088 9.89426 -0.000539683 10.2306 2.3928e-05 10.5809V12.9509C2.3928e-05 13.6899 0.594024 14.2739 1.30702 14.2739H23.627C24.357 14.2739 24.933 13.6729 24.933 12.9509V10.5809C24.9359 10.4091 24.9048 10.2384 24.8414 10.0788C24.778 9.9191 24.6836 9.77357 24.5637 9.65057C24.4438 9.52756 24.3007 9.42953 24.1426 9.36213C23.9846 9.29473 23.8148 9.25929 23.643 9.25787Z" fill="#00C3F7"/>
<path d="M48.1011 8.00488C47.4556 7.33665 46.6823 6.80511 45.8271 6.44188C44.9672 6.08044 44.0439 5.89349 43.1111 5.89188C42.202 5.87088 41.3008 6.06517 40.4811 6.45888C39.9311 6.72188 39.4351 7.08888 39.0211 7.54088V7.12988C39.0179 6.92067 38.9398 6.71954 38.8011 6.56288C38.7327 6.48115 38.6469 6.41561 38.5501 6.371C38.4533 6.32639 38.3477 6.3038 38.2411 6.30488H35.3041C35.1972 6.30205 35.0911 6.32385 34.994 6.36859C34.8969 6.41333 34.8114 6.4798 34.7441 6.56288C34.5983 6.71515 34.5188 6.91907 34.5231 7.12988V26.6959C34.5231 26.9019 34.6081 27.1079 34.7431 27.2619C34.8168 27.3347 34.9043 27.392 35.0005 27.4305C35.0966 27.469 35.1996 27.4878 35.3031 27.4859H38.2741C38.4781 27.4859 38.6641 27.3999 38.8171 27.2619C38.8972 27.1918 38.9602 27.1044 39.0015 27.0064C39.0427 26.9083 39.0611 26.8021 39.0551 26.6959V20.0129C39.4791 20.4769 40.0221 20.8209 40.6161 21.0269C41.3971 21.3189 42.2121 21.4569 43.0431 21.4569C43.9931 21.4569 44.9271 21.2839 45.7931 20.9069C46.6628 20.5443 47.4485 20.0065 48.1011 19.3269C48.7783 18.6186 49.3091 17.7836 49.6631 16.8699C50.0652 15.8473 50.2613 14.7554 50.2401 13.6569C50.2528 12.5538 50.057 11.4583 49.6631 10.4279C49.2977 9.52982 48.7676 8.70803 48.1001 8.00488H48.1011ZM45.4201 15.0819C45.2647 15.4968 45.0281 15.8766 44.7241 16.1989C44.4229 16.5227 44.0574 16.78 43.651 16.9545C43.2447 17.1289 42.8063 17.2166 42.3641 17.2119C41.9061 17.2119 41.4651 17.1259 41.0581 16.9369C40.6564 16.7637 40.2927 16.5129 39.9881 16.1989C39.6847 15.8729 39.4431 15.4944 39.2751 15.0819C38.9359 14.1973 38.9359 13.2185 39.2751 12.3339C39.4281 11.9219 39.6831 11.5439 39.9881 11.2339C40.2953 10.9185 40.658 10.6625 41.0581 10.4789C41.466 10.2865 41.9133 10.1923 42.3641 10.2039C42.8231 10.2039 43.2641 10.2899 43.6881 10.4779C44.0781 10.6679 44.4351 10.9079 44.7411 11.2179C45.0461 11.5439 45.2671 11.9039 45.4371 12.3169C45.7624 13.2109 45.7564 14.1919 45.4201 15.0819ZM66.2281 6.30388H63.2751C63.1728 6.30349 63.0716 6.32466 62.978 6.36601C62.8845 6.40737 62.8007 6.46797 62.7321 6.54388C62.6561 6.621 62.596 6.71237 62.5553 6.81276C62.5146 6.91314 62.4942 7.02057 62.4951 7.12888V7.48888C62.1237 7.05701 61.6672 6.70637 61.1541 6.45888C60.351 6.06874 59.4668 5.87444 58.5741 5.89188C56.6725 5.89514 54.8489 6.6483 53.4991 7.98788C52.8033 8.69446 52.25 9.52827 51.8691 10.4439C51.4454 11.467 51.2377 12.5667 51.2591 13.6739C51.241 14.7808 51.4485 15.8798 51.8691 16.9039C52.248 17.8164 52.7952 18.6496 53.4821 19.3599C54.1383 20.036 54.925 20.5718 55.7944 20.9348C56.6639 21.2979 57.598 21.4806 58.5401 21.4719C59.4401 21.4899 60.3221 21.3009 61.1371 20.9049C61.6461 20.6479 62.1211 20.3049 62.4951 19.8749V20.2699C62.4951 20.4759 62.5791 20.6819 62.7321 20.8369C62.8851 20.9739 63.0721 21.0599 63.2751 21.0599H66.2281C66.4357 21.056 66.6347 20.9767 66.7881 20.8369C66.8616 20.7624 66.9192 20.6737 66.9572 20.5762C66.9952 20.4787 67.0129 20.3745 67.0091 20.2699V7.12888C67.0137 6.91821 66.9346 6.71431 66.7891 6.56188C66.7218 6.4788 66.6363 6.41233 66.5392 6.36759C66.4421 6.32285 66.335 6.30105 66.2281 6.30388ZM62.2401 15.0649C62.0847 15.4798 61.8481 15.8596 61.5441 16.1819C61.2388 16.4914 60.8831 16.7467 60.4921 16.9369C59.6601 17.3149 58.6921 17.3149 57.8611 16.9369C57.461 16.7532 57.0983 16.4973 56.7911 16.1819C56.4874 15.8595 56.2511 15.4798 56.0961 15.0649C55.7737 14.1831 55.7737 13.2157 56.0961 12.3339C56.2481 11.9219 56.4861 11.5609 56.7921 11.2339C57.0971 10.9249 57.4531 10.6679 57.8611 10.4789C58.2744 10.2922 58.7226 10.1956 59.1761 10.1956C59.6296 10.1956 60.0779 10.2922 60.4911 10.4789C60.8821 10.6679 61.2391 10.9079 61.5441 11.2169C61.8331 11.5439 62.0701 11.9039 62.2401 12.3169C62.5801 13.2099 62.5801 14.1889 62.2401 15.0649ZM95.6771 13.2949C95.2516 12.9202 94.7631 12.6239 94.2341 12.4199C93.6738 12.1963 93.0944 12.0236 92.5031 11.9039L90.2451 11.4579C89.6681 11.3549 89.2611 11.1999 89.0401 11.0109C88.9483 10.947 88.8729 10.8623 88.8199 10.7638C88.7669 10.6653 88.7378 10.5557 88.7351 10.4439C88.7351 10.2039 88.8711 9.99788 89.1591 9.82588C89.5491 9.61988 89.9741 9.51588 90.4151 9.55088C90.9921 9.55088 91.5691 9.67088 92.0951 9.89388C92.6051 10.1179 93.1141 10.3759 93.5721 10.6839C94.2341 11.0969 94.7941 11.0279 95.1841 10.5639L96.2711 9.32788C96.4741 9.12088 96.5931 8.84688 96.6111 8.55488C96.602 8.40443 96.5609 8.25766 96.4905 8.12437C96.4201 7.99107 96.3222 7.87431 96.2031 7.78188C95.7441 7.38688 95.0151 6.95688 94.0471 6.54488C93.0801 6.13288 91.8571 5.90888 90.4151 5.90888C89.5349 5.89709 88.6584 6.02466 87.8181 6.28688C87.0997 6.50844 86.4271 6.85732 85.8321 7.31688C85.2962 7.73648 84.8612 8.27093 84.5591 8.88088C84.2714 9.47557 84.1206 10.1272 84.1181 10.7879C84.1181 12.0079 84.4911 13.0039 85.2211 13.7419C85.9511 14.4809 86.9191 14.9619 88.1241 15.2019L90.4661 15.7179C90.9761 15.8039 91.4841 15.9579 91.9601 16.1819C92.2141 16.2849 92.3841 16.5419 92.3841 16.8339C92.3841 17.0919 92.2481 17.3319 91.9601 17.5389C91.6711 17.7449 91.1961 17.8819 90.5851 17.8819C89.9445 17.8928 89.3105 17.7516 88.7351 17.4699C88.1896 17.2067 87.6818 16.8717 87.2251 16.4739C87.0248 16.3054 86.794 16.177 86.5451 16.0959C86.2741 16.0099 85.9511 16.0959 85.5951 16.3879L84.3051 17.3669C84.1296 17.4934 83.9934 17.6671 83.9124 17.8677C83.8313 18.0684 83.8087 18.2879 83.8471 18.5009C83.9141 18.9309 84.2711 19.3589 84.9331 19.8579C86.5602 20.9563 88.4864 21.5262 90.4491 21.4899C91.3628 21.5017 92.2729 21.3743 93.1481 21.1119C93.8988 20.8849 94.6048 20.5304 95.2351 20.0639C95.7951 19.6339 96.2711 19.0839 96.5931 18.4489C96.9037 17.8242 97.0662 17.1365 97.0681 16.4389C97.0823 15.8119 96.9548 15.1898 96.6951 14.6189C96.4386 14.1199 96.0937 13.6707 95.6771 13.2949ZM108.576 16.8689C108.51 16.7516 108.417 16.6515 108.305 16.5768C108.193 16.5021 108.065 16.4548 107.931 16.4389C107.66 16.4389 107.388 16.5249 107.167 16.6789C106.808 16.9152 106.392 17.0519 105.962 17.0749C105.826 17.0749 105.674 17.0579 105.538 17.0229C105.391 16.9933 105.255 16.9218 105.148 16.8169C105.013 16.6905 104.903 16.5391 104.825 16.3709C104.729 16.1188 104.683 15.8505 104.689 15.5809V10.2209H108.525C108.749 10.2156 108.962 10.123 109.119 9.96288C109.199 9.89129 109.262 9.80389 109.306 9.70626C109.35 9.60863 109.373 9.50292 109.374 9.39588V7.12988C109.376 7.02 109.354 6.91108 109.31 6.81038C109.266 6.70968 109.201 6.6195 109.119 6.54588C108.965 6.39403 108.758 6.30797 108.542 6.30588H104.706V2.64588C104.712 2.53706 104.694 2.42822 104.653 2.32723C104.612 2.22623 104.549 2.1356 104.469 2.06188C104.322 1.92237 104.128 1.84284 103.925 1.83888H100.938C100.724 1.83471 100.517 1.91479 100.361 2.06188C100.203 2.21554 100.112 2.42537 100.107 2.64588V6.30588H98.4091C98.3023 6.30293 98.1963 6.32458 98.0992 6.36914C98.0021 6.4137 97.9165 6.47999 97.8491 6.56288C97.7104 6.71954 97.6324 6.92067 97.6291 7.12988V9.39688C97.6291 9.60288 97.7131 9.80988 97.8491 9.96388C97.9138 10.0499 97.9988 10.1185 98.0966 10.1635C98.1943 10.2085 98.3017 10.2286 98.4091 10.2219H100.107V16.5949C100.09 17.3514 100.241 18.1023 100.548 18.7939C100.822 19.359 101.209 19.8618 101.685 20.2709C102.16 20.6659 102.72 20.9409 103.297 21.1129C103.896 21.2988 104.521 21.3916 105.148 21.3879C105.973 21.3862 106.792 21.2525 107.575 20.9919C108.301 20.7498 108.959 20.3377 109.493 19.7899C109.655 19.623 109.754 19.4046 109.773 19.1726C109.791 18.9405 109.728 18.7093 109.594 18.5189L108.576 16.8689ZM124.751 6.30388H121.798C121.696 6.30349 121.595 6.32466 121.501 6.36601C121.407 6.40737 121.324 6.46797 121.255 6.54388C121.179 6.62088 121.119 6.71221 121.078 6.81261C121.037 6.91301 121.016 7.02049 121.017 7.12888V7.48888C120.646 7.05673 120.189 6.70605 119.676 6.45888C118.868 6.06692 117.978 5.87258 117.08 5.89188C116.141 5.89194 115.21 6.07707 114.343 6.43671C113.475 6.79635 112.686 7.32344 112.022 7.98788C111.321 8.69012 110.767 9.52505 110.392 10.4439C109.97 11.4612 109.762 12.5546 109.781 13.6559C109.763 14.7629 109.971 15.8618 110.392 16.8859C110.766 17.7959 111.326 18.6379 112.005 19.3419C112.659 20.017 113.443 20.5535 114.309 20.9194C115.175 21.2854 116.106 21.4732 117.046 21.4719C117.942 21.4886 118.83 21.3005 119.642 20.9219C120.152 20.6649 120.627 20.3219 121 19.8919V20.2699C121.002 20.4799 121.084 20.6799 121.23 20.8269C121.376 20.9744 121.574 21.0582 121.781 21.0599H124.751C124.957 21.0601 125.155 20.979 125.301 20.8343C125.447 20.6895 125.53 20.4927 125.532 20.2869V7.12988C125.534 7.02549 125.516 6.92168 125.478 6.8244C125.44 6.72711 125.383 6.63825 125.311 6.56288C125.244 6.47975 125.158 6.41323 125.061 6.36848C124.964 6.32374 124.858 6.30098 124.751 6.30388ZM120.763 15.0649C120.608 15.4797 120.371 15.8594 120.067 16.1819C119.762 16.4915 119.405 16.7468 119.014 16.9369C118.601 17.1312 118.148 17.2254 117.691 17.2119C117.232 17.2119 116.791 17.1089 116.384 16.9369C115.984 16.7532 115.621 16.4973 115.314 16.1819C115.01 15.8594 114.774 15.4797 114.618 15.0649C114.296 14.183 114.296 13.2158 114.618 12.3339C114.774 11.9243 115.011 11.5502 115.314 11.2339C115.62 10.9249 115.976 10.6679 116.384 10.4789C116.794 10.2926 117.241 10.1987 117.691 10.2039C118.149 10.2039 118.59 10.2899 119.014 10.4779C119.405 10.6679 119.761 10.9079 120.067 11.2179C120.372 11.5439 120.61 11.9039 120.763 12.3169C121.119 13.1983 121.119 14.1834 120.763 15.0649ZM140.961 16.6799L139.263 15.3739C138.941 15.1169 138.635 15.0479 138.364 15.1509C138.125 15.2533 137.911 15.4057 137.736 15.5979C137.365 16.0475 136.93 16.441 136.446 16.7659C135.937 17.0579 135.376 17.1959 134.799 17.1609C134.136 17.1683 133.487 16.9672 132.944 16.5859C132.398 16.2024 131.985 15.6591 131.761 15.0309C131.607 14.6008 131.527 14.1477 131.524 13.6909C131.524 13.2269 131.591 12.7629 131.761 12.3169C131.914 11.9039 132.135 11.5269 132.44 11.2169C132.746 10.9079 133.102 10.6499 133.492 10.4779C133.907 10.2867 134.359 10.1874 134.816 10.1869C135.393 10.1661 135.964 10.3089 136.463 10.5989C136.951 10.9187 137.386 11.3128 137.753 11.7669C137.922 11.9559 138.126 12.1099 138.364 12.2139C138.635 12.3169 138.941 12.2479 139.246 11.9899L140.944 10.7019C141.147 10.5639 141.317 10.3579 141.385 10.1179C141.433 9.98942 141.452 9.85186 141.44 9.71521C141.429 9.57855 141.386 9.44623 141.317 9.32788C140.662 8.30554 139.764 7.4614 138.703 6.87088C137.583 6.23588 136.242 5.90888 134.748 5.90888C133.695 5.90916 132.652 6.11325 131.676 6.50988C130.744 6.89034 129.896 7.45106 129.181 8.15988C128.464 8.86213 127.898 9.70373 127.518 10.6329C126.72 12.5993 126.72 14.7994 127.518 16.7659C127.908 17.6929 128.468 18.5349 129.181 19.2219C130.667 20.6776 132.668 21.4864 134.748 21.4719C136.242 21.4719 137.583 21.1459 138.703 20.5099C139.773 19.9186 140.678 19.0683 141.334 18.0369C141.403 17.9216 141.445 17.7921 141.457 17.6582C141.469 17.5243 141.45 17.3894 141.402 17.2639C141.322 17.027 141.167 16.8222 140.961 16.6799ZM156.677 19.7369L152.01 12.8829L155.999 7.60988C156.092 7.48956 156.156 7.34917 156.185 7.19987C156.215 7.05057 156.209 6.89649 156.168 6.74988C156.1 6.54488 155.914 6.32088 155.422 6.32088H152.265C152.083 6.32601 151.904 6.36678 151.738 6.44088C151.543 6.53903 151.383 6.69517 151.28 6.88788L148.089 11.3549H147.325V0.789879C147.328 0.685548 147.309 0.58177 147.272 0.484479C147.234 0.387189 147.177 0.298294 147.105 0.222879C147.031 0.150418 146.944 0.0933841 146.848 0.0550987C146.751 0.0168133 146.649 -0.00195784 146.545 -0.000121289H143.591C143.384 0.0038574 143.185 0.0831078 143.031 0.222879C142.952 0.294047 142.89 0.381793 142.849 0.479823C142.808 0.577853 142.789 0.683737 142.794 0.789879V20.2699C142.794 20.4929 142.878 20.6999 143.031 20.8369C143.105 20.9094 143.192 20.9665 143.289 21.0048C143.385 21.0431 143.488 21.0618 143.591 21.0599H146.545C146.753 21.0559 146.952 20.9766 147.105 20.8369C147.177 20.7615 147.234 20.6726 147.272 20.5753C147.309 20.478 147.328 20.3742 147.325 20.2699V15.1169H148.174L151.653 20.4589C151.857 20.8369 152.248 21.0769 152.672 21.0769H155.982C156.491 21.0769 156.694 20.8369 156.779 20.6309C156.839 20.4853 156.861 20.3271 156.843 20.1708C156.825 20.0145 156.768 19.8652 156.677 19.7369ZM83.0151 6.30388H79.7051C79.5827 6.29671 79.4602 6.31605 79.3459 6.36058C79.2317 6.40511 79.1284 6.47377 79.0431 6.56188C78.8935 6.71418 78.7881 6.90429 78.7381 7.11188L76.2931 16.2159H75.7001L73.0871 7.11188C73.0373 6.91942 72.9507 6.73842 72.8321 6.57888C72.76 6.49146 72.6692 6.42136 72.5664 6.37376C72.4636 6.32616 72.3514 6.30228 72.2381 6.30388H68.8091C68.3691 6.30388 68.0971 6.44188 67.9781 6.73388C67.8931 6.99088 67.8931 7.28388 67.9781 7.54088L72.1701 20.3389C72.2381 20.5279 72.3401 20.7169 72.4931 20.8539C72.6631 21.0089 72.8831 21.0939 73.1201 21.0769H74.8861L74.7331 21.4899L74.3431 22.6749C74.2231 23.0349 74.0031 23.3619 73.6981 23.6019C73.416 23.8187 73.0689 23.9339 72.7131 23.9289C72.4081 23.9289 72.1031 23.8599 71.8311 23.7389C71.5524 23.618 71.29 23.4624 71.0501 23.2759C70.8321 23.1203 70.571 23.0364 70.3031 23.0359H70.2691C70.1156 23.0435 69.9665 23.09 69.8359 23.171C69.7052 23.252 69.5973 23.3648 69.5221 23.4989L68.4701 25.0449C68.0461 25.7149 68.2831 26.1449 68.5551 26.3849C69.1163 26.9033 69.7819 27.2957 70.5071 27.5359C71.3103 27.8101 72.1534 27.9494 73.0021 27.9479C74.5121 27.9479 75.7851 27.5359 76.7521 26.7119C77.762 25.8252 78.4981 24.669 78.8741 23.3789L83.7291 7.54088C83.8311 7.26588 83.8481 6.97388 83.7461 6.69888C83.6611 6.50988 83.4731 6.30388 83.0151 6.30388Z" fill="#011B33"/>
</g>
<defs>
<clipPath id="clip0_19_2">
<rect width="157" height="28" fill="white"/>
</clipPath>
</defs>
</svg>
