<svg width="450" height="450" viewBox="0 0 450 450" fill="none" xmlns="http://www.w3.org/2000/svg">
<path d="M225 0C349.264 0 450 100.736 450 225C450 349.264 349.264 450 225 450C100.736 450 0 349.264 0 225C0 100.736 100.736 0 225 0ZM76.9805 98.2012C46.6309 133.474 29.9584 178.473 30 225.005C30.003 332.529 117.482 420.003 225.006 420C271.538 420.039 316.538 403.364 351.809 373.013L76.9805 98.2012ZM224.995 30C178.463 29.9608 133.464 46.6356 98.1934 76.9873L373.021 351.799C403.37 316.526 420.042 271.526 420 224.994C419.997 117.47 332.518 29.997 224.995 30Z" fill="#FF0300"/>
</svg>
