<svg width="164" height="30" viewBox="0 0 164 30" fill="none" xmlns="http://www.w3.org/2000/svg">
<path d="M4.75786 2.7588V14.4628C4.75786 15.6332 5.0454 16.5342 5.6204 17.1659C6.1954 17.7975 7.03941 18.1133 8.15236 18.1133C9.2653 18.1133 10.1185 17.7975 10.7121 17.1659C11.3057 16.5342 11.6025 15.6332 11.6025 14.4628V2.7588H16.3604V14.4349C16.3604 16.1812 15.9894 17.6582 15.2474 18.8657C14.5055 20.0733 13.5038 20.9836 12.2424 21.5967C10.9997 22.2097 9.60849 22.5163 8.06889 22.5163C6.52928 22.5163 5.14739 22.219 3.92315 21.6245C2.71743 21.0115 1.76219 20.1012 1.0573 18.8936C0.35241 17.6675 0 16.1812 0 14.4349V2.7588H4.75786ZM29.1615 6.6044C30.9795 6.6044 32.4264 7.19891 33.502 8.38787C34.5966 9.55827 35.1436 11.1745 35.1436 13.2367V22.3212H30.4135V13.8776C30.4135 12.8372 30.1448 12.0291 29.6067 11.4532C29.0685 10.8773 28.3451 10.5893 27.4364 10.5893C26.5277 10.5893 25.8043 10.8773 25.2661 11.4532C24.728 12.0291 24.4593 12.8372 24.4593 13.8776V22.3212H19.7014V6.7716H24.4593V8.83373C24.9418 8.14638 25.5905 7.6076 26.4069 7.21747C27.2233 6.80878 28.1415 6.6044 29.1615 6.6044ZM40.8423 5.15533C40.0076 5.15533 39.3215 4.91385 38.7834 4.4308C38.2642 3.9292 38.0043 3.31613 38.0043 2.5916C38.0043 1.84851 38.2642 1.23545 38.7834 0.7524C39.3215 0.2508 40.0076 0 40.8423 0C41.6587 0 42.3265 0.2508 42.8456 0.7524C43.3838 1.23545 43.6525 1.84851 43.6525 2.5916C43.6525 3.31613 43.3838 3.9292 42.8456 4.4308C42.3265 4.91385 41.6587 5.15533 40.8423 5.15533ZM43.2073 6.7716V22.3212H38.4495V6.7716H43.2073ZM53.639 17.8625L57.0057 6.7716H62.0696L56.5605 22.3212H50.6897L45.1806 6.7716H50.2724L53.639 17.8625ZM78.7082 14.2956C78.7082 14.7415 78.6804 15.2059 78.6247 15.6889H67.857C67.9309 16.655 68.237 17.3981 68.7751 17.9183C69.3316 18.4199 70.0082 18.6707 70.8063 18.6707C71.9932 18.6707 72.8184 18.1691 73.2826 17.1659H78.3465C78.0866 18.1876 77.6136 19.1072 76.9275 19.9247C76.2597 20.7421 75.4155 21.383 74.3955 21.8475C73.3748 22.3119 72.2341 22.5441 70.9732 22.5441C69.4517 22.5441 68.0979 22.219 66.911 21.5688C65.7233 20.9186 64.7963 19.9897 64.1286 18.7821C63.4608 17.5746 63.1269 16.1627 63.1269 14.5464C63.1269 12.9301 63.4513 11.5182 64.1008 10.3107C64.7685 9.10309 65.6955 8.17425 66.8831 7.524C68.07 6.87375 69.4334 6.54867 70.9732 6.54867C72.4757 6.54867 73.8112 6.86451 74.9798 7.49613C76.1484 8.12775 77.0571 9.0288 77.7066 10.1992C78.3743 11.3696 78.7082 12.7351 78.7082 14.2956ZM73.8391 13.0416C73.8391 12.2242 73.5608 11.574 73.0044 11.0909C72.4479 10.6079 71.7523 10.3664 70.9176 10.3664C70.1195 10.3664 69.4429 10.5986 68.8864 11.0631C68.3483 11.5275 68.0144 12.187 67.8848 13.0416H73.8391ZM85.9761 9.3632C86.5325 8.50865 87.2281 7.83985 88.0628 7.3568C88.8976 6.8552 89.8245 6.6044 90.8452 6.6044V11.6483H89.5375C88.3499 11.6483 87.4595 11.9084 86.8664 12.4285C86.2726 12.9301 85.9761 13.8219 85.9761 15.1037V22.3212H81.2182V6.7716H85.9761V9.3632ZM99.4354 22.5441C98.0809 22.5441 96.8756 22.3119 95.8183 21.8475C94.761 21.383 93.9263 20.7514 93.3142 19.9525C92.7021 19.1351 92.3587 18.2248 92.2847 17.2216H96.987C97.0426 17.7604 97.293 18.1969 97.7382 18.5313C98.1834 18.8657 98.7303 19.0329 99.3798 19.0329C99.9729 19.0329 100.428 18.9215 100.743 18.6985C101.077 18.457 101.244 18.1505 101.244 17.7789C101.244 17.3331 101.012 17.008 100.548 16.8036C100.084 16.5807 99.3329 16.3392 98.2947 16.0791C97.1817 15.819 96.254 15.5496 95.5123 15.2709C94.7698 14.9737 94.1299 14.5185 93.5924 13.9055C93.0543 13.2738 92.7856 12.4285 92.7856 11.3696C92.7856 10.4779 93.0265 9.66973 93.509 8.9452C94.0098 8.20211 94.7332 7.61691 95.6792 7.1896C96.6435 6.76229 97.7843 6.54867 99.1016 6.54867C101.049 6.54867 102.58 7.03171 103.692 7.99773C104.824 8.96375 105.473 10.2456 105.64 11.8433H101.244C101.169 11.3046 100.928 10.8773 100.521 10.5615C100.131 10.2456 99.6112 10.0877 98.9624 10.0877C98.406 10.0877 97.9791 10.1992 97.6825 10.4221C97.3853 10.6265 97.2373 10.9144 97.2373 11.286C97.2373 11.7319 97.4687 12.0663 97.933 12.2892C98.4147 12.5121 99.1572 12.7351 100.159 12.958C101.308 13.2552 102.246 13.5525 102.969 13.8497C103.692 14.1284 104.323 14.5928 104.861 15.2431C105.418 15.8747 105.705 16.7293 105.724 17.8068C105.724 18.7171 105.464 19.5345 104.945 20.2591C104.444 20.965 103.711 21.5224 102.746 21.9311C101.8 22.3398 100.696 22.5441 99.4354 22.5441ZM111.027 5.15533C110.192 5.15533 109.506 4.91385 108.968 4.4308C108.449 3.9292 108.189 3.31613 108.189 2.5916C108.189 1.84851 108.449 1.23545 108.968 0.7524C109.506 0.2508 110.192 0 111.027 0C111.843 0 112.511 0.2508 113.03 0.7524C113.568 1.23545 113.837 1.84851 113.837 2.5916C113.837 3.31613 113.568 3.9292 113.03 4.4308C112.511 4.91385 111.843 5.15533 111.027 5.15533ZM113.392 6.7716V22.3212H108.634V6.7716H113.392ZM125.493 18.2805V22.3212H123.072C121.347 22.3212 120.002 21.9032 119.038 21.0672C118.074 20.2126 117.591 18.8286 117.591 16.9151V10.7287H115.699V6.7716H117.591V2.98173H122.349V6.7716H125.465V10.7287H122.349V16.9708C122.349 17.4352 122.46 17.7696 122.683 17.974C122.905 18.1784 123.277 18.2805 123.796 18.2805H125.493ZM144.002 6.7716L134.264 29.7059H129.145L132.706 21.7917L126.39 6.7716H131.704L135.294 16.4971L138.855 6.7716H144.002ZM157.687 22.3212L153.709 16.3299L150.203 22.3212H144.805L151.065 12.3728L144.666 2.7588H150.203L154.126 8.66653L157.576 2.7588H162.974L156.769 12.6236L163.224 22.3212H157.687Z" fill="white"/>
</svg>
