<svg width="289" height="305" viewBox="0 0 289 305" fill="none" xmlns="http://www.w3.org/2000/svg">
<rect width="289" height="304.211" fill="white"/>
<path d="M189.443 161.324H183.974C197.231 149.737 205.618 132.708 205.618 113.754V30.8072H220.089V75.5182H235.679V30.8072H249.449V15.2105H38.9949V30.8072H79.3464V113.754C79.3464 132.708 87.7352 149.737 100.991 161.324H99.0009C61.1852 161.324 30.4209 192.105 30.4209 229.938V281.395H258.023V229.938C258.023 192.105 227.259 161.324 189.443 161.324ZM190.029 30.8072V82.2764H94.9351V30.8072H190.029ZM94.9351 113.754V97.8733H190.029V113.754C190.029 139.984 168.7 161.324 142.483 161.324C116.265 161.324 94.9351 139.984 94.9351 113.754ZM177.164 176.921L144.222 221.49L111.28 176.921H177.164ZM242.434 265.798H46.01V229.938C46.01 203.007 66.1867 180.7 92.2093 177.356L144.222 247.72L196.235 177.356C222.257 180.7 242.434 203.007 242.434 229.938V265.798Z" fill="#9C2D9C"/>
</svg>
